# xmcd
#
# Track frame offsets:
#	150
#	26820
#	45250
#	63112
#	76990
#	88062
#	111417
#	123350
#	147010
#	182747
#	197372
#	223065
#	244257
#	265307
#	273812
#	295877
#	315665
#	336630
#
# Disc length: 4674
#
# Revision: 2
# Processed by: cddbd v1.5.1PL0 Copyright (c) Steve Scherf et al.
# Submitted via: EasyCDDAExtractor 7.1.2.1
# Normalized: r1:DSETVAR1
#
DISCID=0b124012
DTITLE=Various Artist - Little Louie Vega Strictly Rythm Mix
DYEAR=1994
DGENRE=House
TTITLE0=River Ocean - Love and Happiness
TTITLE1=Wave Form - I Go Around
TTITLE2=Circle Children - Zulu
TTITLE3=Harddrive - Deep Inside
TTITLE4=Barbara Tucker - Beautiful People
TTITLE5=Loop 7 - The Theme
TTITLE6=The Believers - Who Dares To Believe In Me
TTITLE7=Sun...Sun...Sun - Curious
TTITLE8=Androgeny - I Could Be This ...
TTITLE9=Reel 2 Real - I Like To Move It
TTITLE10=Motion Lotion - The Sound
TTITLE11=Rhythm Factor - You Bring Me Joy
TTITLE12=Rockin - Fantasy
TTITLE13=The Boss - Congo
TTITLE14=Ce Ce Rogers - No Love Lost
TTITLE15=Logic - The Flavor Of Love
TTITLE16=Total Ka-Os - It's All Ill Groove
TTITLE17=Logic - That's The Flavor Of Love
EXTD=
EXTT0=
EXTT1=
EXTT2=
EXTT3=
EXTT4=
EXTT5=
EXTT6=
EXTT7=
EXTT8=
EXTT9=
EXTT10=
EXTT11=
EXTT12=
EXTT13=
EXTT14=
EXTT15=
EXTT16=
EXTT17=
PLAYORDER=
